# AST/ASF file generated using VICON BodyLanguage
# -----------------------------------------------
:version 1.10
:name VICON
:units
  mass 1.0
  length 0.45
  angle deg
:documentation
   .ast/.asf automatically generated from VICON data using
   VICON BodyBuilder and BodyLanguage model FoxedUp or BRILLIANT.MOD
:root
   order TX TY TZ RX RY RZ
   axis XYZ
   position 0 0 0  
   orientation 0 0 0 
:bonedata
  begin
     id 1 
     name lhipjoint
     direction 0.624716 -0.669793 0.401383 
     length 2.38238 
     axis 0 0 0  XYZ
  end
  begin
     id 2 
     name lfemur
     direction 0.34202 -0.939693 0  
     length 6.4574  
     axis 0 0 20  XYZ
    dof rx ry rz
    limits (-160.0 20.0)
           (-70.0 70.0)
           (-60.0 70.0)
  end
  begin
     id 3 
     name ltibia
     direction 0.34202 -0.939693 0   
     length 7.68739   
     axis 0 0 20   XYZ
    dof rx
    limits (-10.0 170.0)
  end
  begin
     id 4 
     name lfoot
     direction 0.0681309 -0.187188 0.979959   
     length 2.46615   
     axis -90 7.62852e-016 20   XYZ
    dof rx rz
    limits (-45.0 90.0)
           (-70.0 20.0)
  end
  begin
     id 5 
     name ltoes
     direction 1.53566e-011 -4.21819e-011 1   
     length 1.2376   
     axis -90 7.62852e-016 20   XYZ
    dof rx
    limits (-90.0 20.0)
  end
  begin
     id 6 
     name rhipjoint
     direction -0.644473 -0.655875 0.393043   
     length 2.43293  
     axis 0 0 0  XYZ 
  end
  begin
     id 7 
     name rfemur
     direction -0.34202 -0.939693 0   
     length 6.7025   
     axis 0 0 -20   XYZ
    dof rx ry rz
    limits (-160.0 20.0)
           (-70.0 70.0)
           (-70.0 60.0)
  end
  begin
     id 8 
     name rtibia
     direction -0.34202 -0.939693 0   
     length 7.80547   
     axis 0 0 -20   XYZ
    dof rx
    limits (-10.0 170.0)
 end
 begin
     id 9 
     name rfoot
     direction -0.0756734 -0.207911 0.975216   
     length 2.40315  
     axis -90 -7.62852e-016 -20   XYZ
    dof rx rz
    limits (-45.0 90.0)
           (-20.0 70.0)
  end
  begin
     id 10 
     name rtoes
     direction -1.5353e-011 -4.21879e-011 1   
     length 1.20477   
     axis -90 -7.62852e-016 -20   XYZ
    dof rx
    limits (-90.0 20.0)
  end
  begin
     id 11 
     name lowerback
     direction 0.0160353 0.987463 -0.157037   
     length 2.18572   
     axis 0 0 0   XYZ
    dof rx ry rz
    limits (-20.0 45.0)
           (-30.0 30.0)
           (-30.0 30.0)
  end
  begin
     id 12 
     name upperback
     direction -0.00499661 0.999756 0.0215076   
     length 2.18016   
     axis 0 0 0   XYZ
    dof rx ry rz
    limits (-20.0 45.0)
           (-30.0 30.0)
           (-30.0 30.0)
  end
  begin
     id 13 
     name thorax
     direction -0.00921346 0.995333 0.0960619   
     length 2.24923   
     axis 0 0 0   XYZ
    dof rx ry rz
    limits (-20.0 45.0)
           (-30.0 30.0)
           (-30.0 30.0)
  end
  begin
     id 14 
     name lowerneck
     direction 0.0274184 0.991181 0.12965   
     length 1.70911   
     axis 0 0 0   XYZ
    dof rx ry rz
    limits (-20.0 45.0)
           (-30.0 30.0)
           (-30.0 30.0)
  end
  begin
     id 15 
     name upperneck
     direction 0.0015627 0.999959 -0.00893559   
     length 1.69312   
     axis 0 0 0   XYZ
    dof rx ry rz
    limits (-20.0 45.0)
           (-30.0 30.0)
           (-30.0 30.0)
  end
  begin
     id 16
     name head
     direction -0.00230242 0.999856 -0.0168327  
     length 1.80241  
     axis 0 0 0   XYZ
    dof rx ry rz
    limits (-20.0 45.0)
           (-30.0 30.0)
           (-30.0 30.0)
  end
  begin
     id 17 
     name lclavicle
     direction 0.955523 0.290741 -0.0494489  
     length 3.84275  
     axis 0 0 0   XYZ
    dof ry rz
    limits (-20.0 10.0)
           (0.0 20.0)
  end
  begin
     id 18 
     name lhumerus
     direction 1 -4.48967e-011 -3.18382e-028   
     length 5.17714   
     axis 180 -30 -90   XYZ
    dof rx ry rz
    limits (-60.0 90.0)
           (-90.0 90.0)
           (-90.0 90.0)
  end
  begin
     id 19
     name lradius
     direction 1 -4.48968e-011 -2.22911e-027   
     length 3.43679   
     axis 180 -30 -90   XYZ
    dof rx
    limits (-10.0 170.0)
  end
  begin
     id 20
     name lwrist
     direction 1 -4.48951e-011 -6.32245e-027   
     length 1.7184   
     axis 3.57107e-015 90 90   XYZ
    dof ry
    limits (-180.0 0.0)
 end
  begin
     id 21 
     name lhand
     direction 1 -4.48924e-011 -1.26431e-026   
     length 0.573117   
     axis 8.06912e-015 90 90   XYZ
    dof rx rz
    limits (-90.0 90.0)
           (-45.0 45.0)
  end
  begin
     id 22 
     name lfingers
     direction 1 -4.49001e-011 -2.52965e-026   
     length 0.462062   
     axis 1.61381e-014 90 90   XYZ
    dof rx
    limits (0.0 90.0)
  end
  begin
     id 23
     name lthumb
     direction 0.707107 -6.35008e-011 0.707107   
     length 0.663431   
     axis -90 45 -1.62303e-014   XYZ
    dof rx rz
    limits (-45.0 45.0)
           (-45.0 45.0)
  end
  begin
     id 24 
     name rclavicle
     direction -0.963917 0.256881 -0.0698287   
     length 3.73057  
     axis 0 0 0   XYZ 
    dof ry rz
    limits (-10.0 20.0)
           (-20.0 0.0)
  end
  begin
     id 25 
     name rhumerus
     direction -1 -4.48962e-011 -2.73982e-027  
     length 5.23908   
     axis 180 30 90   XYZ
    dof rx ry rz
    limits (-90.0 60.0)
           (-90.0 90.0)
           (-90.0 90.0)
  end
  begin
     id 26 
     name rradius
     direction -1 -4.48968e-011 -4.33218e-027   
     length 3.46485   
     axis 180 30 90   XYZ
    dof rx
    limits (-10.0 170.0)
  end
  begin
     id 27 
     name rwrist
     direction -1 -4.48989e-011 -6.32372e-027   
     length 1.73243   
     axis 3.57107e-015 -90 -90   XYZ
    dof ry
    limits (-180.0 0.0)
  end
  begin
     id 28
     name rhand
     direction -1 -4.48948e-011 -1.26448e-026   
     length 0.608752   
     axis 8.06912e-015 -90 -90   XYZ
    dof rx rz
    limits (-90.0 90.0)
           (-45.0 45.0)
  end
  begin
     id 29
     name rfingers
     direction -1 -4.48962e-011 -2.52913e-026   
     length 0.490792   
     axis 1.61381e-014 -90 -90   XYZ
    dof rx
    limits (0.0 90.0)
  end
  begin
     id 30
     name rthumb
     direction -0.707107 -6.34878e-011 0.707107   
     length 0.704682   
     axis -90 -45 1.62303e-014   XYZ
    dof rx rz
    limits (-45.0 45.0)
           (-45.0 45.0)
  end
:hierarchy
  begin
    root lhipjoint rhipjoint lowerback
    lhipjoint lfemur
    lfemur ltibia
    ltibia lfoot
    lfoot ltoes
    rhipjoint rfemur
    rfemur rtibia
    rtibia rfoot
    rfoot rtoes
    lowerback upperback
    upperback thorax
    thorax lowerneck lclavicle rclavicle
    lowerneck upperneck
    upperneck head
    lclavicle lhumerus
    lhumerus lradius
    lradius lwrist
    lwrist lhand lthumb
    lhand lfingers
    rclavicle rhumerus
    rhumerus rradius
    rradius rwrist
    rwrist rhand rthumb
    rhand rfingers
  end

#!OML:ASF G:\JayActor3\Patient Classification 1\Patient 1\Session 6\male.ASF
:FULLY-SPECIFIED
:DEGREES
349
root 3.46379 16.5962 -6.91804 2.42661 -68.2466 0.475935
lowerback -2.10904 -0.847227 6.69495
upperback 3.81566 -1.70232 3.56836
thorax 5.08245 -0.701319 -0.149499
lowerneck -8.57009 -3.51539 -0.765723
upperneck 35.584 -5.61294 -2.304
head 13.3316 -3.25027 -1.6227
rclavicle 8.15017e-015 3.49861e-014
rhumerus 35.9062 60.4575 -30.455
rradius 105.959
rwrist 13.4605
rhand 25.7332 -3.95967
rfingers 7.12502
rthumb 49.8334 -25.2694
lclavicle 8.15017e-015 3.49861e-014
lhumerus -31.9114 10.9429 86.3458
lradius 29.3674
lwrist 19.3005
lhand -17.3939 13.9062
lfingers 7.12502
lthumb 8.85522 43.7004
rfemur -13.8431 -6.06448 25.5065
rtibia 33.6503
rfoot -27.3621 -14.2405
rtoes 13.3212
lfemur -3.42584 3.71914 -15.4585
ltibia 15.2151
lfoot -12.7022 7.2783
ltoes -2.79257
350
root 3.46001 16.597 -6.92417 2.42832 -68.1572 0.521121
lowerback -2.10835 -0.865698 6.67821
upperback 3.8159 -1.72593 3.56831
thorax 5.08141 -0.713597 -0.141725
lowerneck -8.57284 -3.50015 -0.765636
upperneck 35.7173 -5.60793 -2.29486
head 13.3918 -3.24819 -1.62402
rclavicle 3.27995e-014 2.06736e-014
rhumerus 36.4084 60.5133 -29.9253
rradius 106.226
rwrist 13.5416
rhand 25.7784 -3.99102
rfingers 7.12502
rthumb 49.8749 -25.2792
lclavicle 3.27995e-014 2.06736e-014
lhumerus -31.8482 10.8211 86.3773
lradius 29.4948
lwrist 19.4107
lhand -17.4096 14.0191
lfingers 7.12502
lthumb 8.84012 43.8139
rfemur -13.8912 -6.0471 25.5292
rtibia 33.6603
rfoot -27.4124 -14.3187
rtoes 13.3945
lfemur -3.42445 3.64013 -15.458
ltibia 15.1023
lfoot -12.6633 7.29218
ltoes -2.72435
351
root 3.45608 16.5979 -6.93064 2.44601 -68.0687 0.547611
lowerback -2.10568 -0.883326 6.66479
upperback 3.81318 -1.74807 3.56759
thorax 5.0761 -0.725142 -0.136359
lowerneck -8.57022 -3.48549 -0.762434
upperneck 35.8374 -5.60392 -2.28399
head 13.4451 -3.24586 -1.62462
rclavicle 4.37326e-015 4.77083e-015
rhumerus 36.835 60.5714 -29.4708
rradius 106.464
rwrist 13.6357
rhand 25.8168 -3.96774
rfingers 7.12502
rthumb 49.91 -25.2376
lclavicle 4.37326e-015 4.77083e-015
lhumerus -31.7859 10.7091 86.4012
lradius 29.6067
lwrist 19.5047
lhand -17.4188 14.1205
lfingers 7.12502
lthumb 8.83121 43.9157
rfemur -13.9353 -6.02866 25.5605
rtibia 33.6647
rfoot -27.4586 -14.3977
rtoes 13.468
lfemur -3.43586 3.58209 -15.4457
ltibia 15.0144
lfoot -12.6246 7.28287
ltoes -2.6782
352
root 3.45216 16.5987 -6.93729 2.4866 -67.9811 0.547352
lowerback -2.10033 -0.900427 6.65972
upperback 3.80805 -1.76952 3.56759
thorax 5.06662 -0.736191 -0.134762
lowerneck -8.56299 -3.47201 -0.758161
upperneck 35.9445 -5.60081 -2.27289
head 13.4917 -3.24369 -1.62475
rclavicle -2.60408e-014 4.29375e-014
rhumerus 37.1987 60.6312 -29.0817
rradius 106.67
rwrist 13.7403
rhand 25.8469 -3.87126
rfingers 7.12502
rthumb 49.9376 -25.1267
lclavicle -2.60408e-014 4.29375e-014
lhumerus -31.7246 10.6114 86.4173
lradius 29.6997
lwrist 19.5793
lhand -17.4008 14.1593
lfingers 7.12502
lthumb 8.84862 43.9538
rfemur -13.9748 -6.01656 25.6022
rtibia 33.6638
rfoot -27.4985 -14.4678
rtoes 13.547
lfemur -3.45886 3.53657 -15.4194
ltibia 14.9497
lfoot -12.5889 7.25585
ltoes -2.62147
353
root 3.44836 16.5994 -6.94404 2.53809 -67.8924 0.53382
lowerback -2.09497 -0.918407 6.6578
upperback 3.80264 -1.79236 3.5686
thorax 5.05675 -0.747856 -0.13392
lowerneck -8.5543 -3.45977 -0.75816
upperneck 36.0367 -5.59745 -2.26045
head 13.5317 -3.24165 -1.62292
rclavicle 3.8763e-014 4.77083e-015
rhumerus 37.5208 60.6924 -28.7379
rradius 106.844
rwrist 13.8417
rhand 25.8663 -3.7147
rfingers 7.12502
rthumb 49.9553 -24.9609
lclavicle 3.8763e-014 4.77083e-015
lhumerus -31.6703 10.5113 86.4336
lradius 29.7875
lwrist 19.6501
lhand -17.3684 14.1292
lfingers 7.12502
lthumb 8.87982 43.9224
rfemur -14.0113 -6.01429 25.648
rtibia 33.6594
rfoot -27.5308 -14.5297
rtoes 13.6199
lfemur -3.49127 3.49855 -15.385
ltibia 14.9034
lfoot -12.5566 7.21384
ltoes -2.5574
354
root 3.44447 16.6 -6.95106 2.58648 -67.8036 0.520458
lowerback -2.09097 -0.937944 6.64993
upperback 3.7992 -1.81734 3.57046
thorax 5.04978 -0.76074 -0.129071
lowerneck -8.54732 -3.44746 -0.760945
upperneck 36.1163 -5.59139 -2.24928
head 13.5666 -3.23879 -1.62027
rclavicle -5.96354e-014 -1.11319e-014
rhumerus 37.8126 60.7518 -28.4298
rradius 106.99
rwrist 13.9244
rhand 25.8842 -3.50292
rfingers 7.12502
rthumb 49.9717 -24.7405
lclavicle -5.96354e-014 -1.11319e-014
lhumerus -31.6223 10.402 86.453
lradius 29.8722
lwrist 19.7257
lhand -17.328 14.0215
lfingers 7.12502
lthumb 8.91886 43.813
rfemur -14.0438 -6.0169 25.6939
rtibia 33.6535
rfoot -27.5616 -14.5869
rtoes 13.688
lfemur -3.52837 3.46388 -15.348
ltibia 14.8704
lfoot -12.5247 7.16252
ltoes -2.49614
